<svg width="1280" height="720" viewBox="0 0 1280 720" fill="none" xmlns="http://www.w3.org/2000/svg">
  <defs>
    <linearGradient id="bg" x1="0" y1="0" x2="1280" y2="720"><stop stop-color="#060712"/><stop offset="1" stop-color="#312E81"/></linearGradient>
    <linearGradient id="card" x1="0" y1="0" x2="1" y2="1"><stop stop-color="#FFFFFF" stop-opacity="0.16"/><stop offset="1" stop-color="#FFFFFF" stop-opacity="0.05"/></linearGradient>
    <linearGradient id="accent" x1="0" y1="0" x2="1" y2="1"><stop stop-color="#38BDF8"/><stop offset="0.55" stop-color="#8B5CF6"/><stop offset="1" stop-color="#F472B6"/></linearGradient>
    <filter id="shadow"><feDropShadow dx="0" dy="18" stdDeviation="22" flood-color="#000" flood-opacity="0.35"/></filter>
  </defs>
  <rect width="1280" height="720" rx="36" fill="url(#bg)"/>
  <text x="640" y="78" text-anchor="middle" fill="#FFFFFF" font-family="Arial, sans-serif" font-size="42" font-weight="900">Zenith Walls Feature System</text>
  <text x="640" y="116" text-anchor="middle" fill="#C7D2FE" font-family="Arial, sans-serif" font-size="19">A premium wallpaper discovery experience with native device features</text>

  <g filter="url(#shadow)">
    <g transform="translate(110 170)"><rect width="240" height="145" rx="28" fill="url(#card)" stroke="#FFFFFF" stroke-opacity="0.13"/><circle cx="52" cy="52" r="25" fill="url(#accent)"/><text x="52" y="61" text-anchor="middle" fill="#FFF" font-size="22" font-weight="900" font-family="Arial">⌕</text><text x="34" y="96" fill="#FFFFFF" font-size="21" font-weight="800" font-family="Arial">Search</text><text x="34" y="124" fill="#C7D2FE" font-size="14" font-family="Arial">Debounced wallpaper search</text></g>
    <g transform="translate(385 170)"><rect width="240" height="145" rx="28" fill="url(#card)" stroke="#FFFFFF" stroke-opacity="0.13"/><circle cx="52" cy="52" r="25" fill="url(#accent)"/><text x="52" y="61" text-anchor="middle" fill="#FFF" font-size="22" font-weight="900" font-family="Arial">#</text><text x="34" y="96" fill="#FFFFFF" font-size="21" font-weight="800" font-family="Arial">Categories</text><text x="34" y="124" fill="#C7D2FE" font-size="14" font-family="Arial">Browse themed wallpapers</text></g>
    <g transform="translate(660 170)"><rect width="240" height="145" rx="28" fill="url(#card)" stroke="#FFFFFF" stroke-opacity="0.13"/><circle cx="52" cy="52" r="25" fill="url(#accent)"/><text x="52" y="61" text-anchor="middle" fill="#FFF" font-size="22" font-weight="900" font-family="Arial">☰</text><text x="34" y="96" fill="#FFFFFF" font-size="21" font-weight="800" font-family="Arial">Filters</text><text x="34" y="124" fill="#C7D2FE" font-size="14" font-family="Arial">Refine API queries</text></g>
    <g transform="translate(935 170)"><rect width="240" height="145" rx="28" fill="url(#card)" stroke="#FFFFFF" stroke-opacity="0.13"/><circle cx="52" cy="52" r="25" fill="url(#accent)"/><text x="52" y="61" text-anchor="middle" fill="#FFF" font-size="22" font-weight="900" font-family="Arial">▦</text><text x="34" y="96" fill="#FFFFFF" font-size="21" font-weight="800" font-family="Arial">Masonry Grid</text><text x="34" y="124" fill="#C7D2FE" font-size="14" font-family="Arial">Responsive image columns</text></g>
    <g transform="translate(110 385)"><rect width="240" height="145" rx="28" fill="url(#card)" stroke="#FFFFFF" stroke-opacity="0.13"/><circle cx="52" cy="52" r="25" fill="url(#accent)"/><text x="52" y="61" text-anchor="middle" fill="#FFF" font-size="22" font-weight="900" font-family="Arial">♡</text><text x="34" y="96" fill="#FFFFFF" font-size="21" font-weight="800" font-family="Arial">Favorites</text><text x="34" y="124" fill="#C7D2FE" font-size="14" font-family="Arial">Persisted saved wallpapers</text></g>
    <g transform="translate(385 385)"><rect width="240" height="145" rx="28" fill="url(#card)" stroke="#FFFFFF" stroke-opacity="0.13"/><circle cx="52" cy="52" r="25" fill="url(#accent)"/><text x="52" y="61" text-anchor="middle" fill="#FFF" font-size="22" font-weight="900" font-family="Arial">↓</text><text x="34" y="96" fill="#FFFFFF" font-size="21" font-weight="800" font-family="Arial">Downloads</text><text x="34" y="124" fill="#C7D2FE" font-size="14" font-family="Arial">Save HD wallpapers</text></g>
    <g transform="translate(660 385)"><rect width="240" height="145" rx="28" fill="url(#card)" stroke="#FFFFFF" stroke-opacity="0.13"/><circle cx="52" cy="52" r="25" fill="url(#accent)"/><text x="52" y="61" text-anchor="middle" fill="#FFF" font-size="22" font-weight="900" font-family="Arial">↗</text><text x="34" y="96" fill="#FFFFFF" font-size="21" font-weight="800" font-family="Arial">Share</text><text x="34" y="124" fill="#C7D2FE" font-size="14" font-family="Arial">Native share workflow</text></g>
    <g transform="translate(935 385)"><rect width="240" height="145" rx="28" fill="url(#card)" stroke="#FFFFFF" stroke-opacity="0.13"/><circle cx="52" cy="52" r="25" fill="url(#accent)"/><text x="52" y="61" text-anchor="middle" fill="#FFF" font-size="22" font-weight="900" font-family="Arial">⌁</text><text x="34" y="96" fill="#FFFFFF" font-size="21" font-weight="800" font-family="Arial">OTA Updates</text><text x="34" y="124" fill="#C7D2FE" font-size="14" font-family="Arial">Expo Updates support</text></g>
  </g>
</svg>
