<svg width="1280" height="640" viewBox="0 0 1280 640" fill="none" xmlns="http://www.w3.org/2000/svg">
  <defs>
    <linearGradient id="bg" x1="0" y1="0" x2="1280" y2="640">
      <stop stop-color="#060712"/>
      <stop offset="0.52" stop-color="#1E1B4B"/>
      <stop offset="1" stop-color="#312E81"/>
    </linearGradient>
    <linearGradient id="accent" x1="0" y1="0" x2="1" y2="1">
      <stop stop-color="#38BDF8"/>
      <stop offset="0.55" stop-color="#8B5CF6"/>
      <stop offset="1" stop-color="#F472B6"/>
    </linearGradient>
    <linearGradient id="card" x1="0" y1="0" x2="1" y2="1">
      <stop stop-color="#FFFFFF" stop-opacity="0.18"/>
      <stop offset="1" stop-color="#FFFFFF" stop-opacity="0.05"/>
    </linearGradient>
    <filter id="shadow"><feDropShadow dx="0" dy="28" stdDeviation="34" flood-color="#000000" flood-opacity="0.45"/></filter>
  </defs>
  <rect width="1280" height="640" rx="36" fill="url(#bg)"/>
  <circle cx="1090" cy="110" r="190" fill="#8B5CF6" opacity="0.20"/>
  <circle cx="200" cy="555" r="240" fill="#38BDF8" opacity="0.12"/>
  <path d="M72 500C245 372 388 452 548 320C710 186 925 192 1200 250" stroke="#FFFFFF" stroke-opacity="0.18" stroke-width="4"/>

  <g transform="translate(90 148)">
    <rect width="620" height="330" rx="34" fill="url(#card)" stroke="#FFFFFF" stroke-opacity="0.14"/>
    <text x="48" y="92" fill="#FFFFFF" font-family="Arial, sans-serif" font-size="78" font-weight="900">Zenith Walls</text>
    <text x="52" y="142" fill="#C7D2FE" font-family="Arial, sans-serif" font-size="25" font-weight="600">Discover, preview, save, and organize premium wallpapers</text>
    <rect x="52" y="188" width="146" height="44" rx="22" fill="url(#accent)"/>
    <text x="82" y="217" fill="#FFFFFF" font-family="Arial, sans-serif" font-size="16" font-weight="900">Expo 53</text>
    <rect x="216" y="188" width="170" height="44" rx="22" fill="#FFFFFF" fill-opacity="0.1" stroke="#FFFFFF" stroke-opacity="0.12"/>
    <text x="246" y="217" fill="#FFFFFF" font-family="Arial, sans-serif" font-size="16" font-weight="800">React Native</text>
    <rect x="404" y="188" width="120" height="44" rx="22" fill="#FFFFFF" fill-opacity="0.1" stroke="#FFFFFF" stroke-opacity="0.12"/>
    <text x="436" y="217" fill="#FFFFFF" font-family="Arial, sans-serif" font-size="16" font-weight="800">Pixabay</text>
    <text x="52" y="286" fill="#E0E7FF" font-family="Arial, sans-serif" font-size="21" font-weight="600">Search • Categories • Filters • Favorites • Downloads • Responsive UI</text>
  </g>

  <g transform="translate(810 70)" filter="url(#shadow)">
    <rect width="305" height="500" rx="44" fill="#030712" stroke="#FFFFFF" stroke-opacity="0.15" stroke-width="3"/>
    <rect x="22" y="24" width="261" height="452" rx="34" fill="#0F1022"/>
    <text x="48" y="74" fill="#FFFFFF" font-family="Arial, sans-serif" font-size="27" font-weight="900">Zenith Walls</text>
    <rect x="48" y="102" width="205" height="42" rx="21" fill="#FFFFFF" fill-opacity="0.10"/>
    <text x="70" y="129" fill="#A5B4FC" font-family="Arial, sans-serif" font-size="14">Search wallpapers...</text>
    <g transform="translate(48 174)">
      <rect width="88" height="130" rx="18" fill="#38BDF8" opacity="0.85"/>
      <rect x="104" y="0" width="88" height="170" rx="18" fill="#8B5CF6" opacity="0.85"/>
      <rect x="0" y="148" width="88" height="150" rx="18" fill="#F472B6" opacity="0.82"/>
      <rect x="104" y="188" width="88" height="110" rx="18" fill="#22C55E" opacity="0.75"/>
    </g>
    <rect x="48" y="420" width="205" height="36" rx="18" fill="url(#accent)"/>
  </g>
</svg>
